<svg id="visual" viewBox="0 0 900 600" width="900" height="600" xmlns="http://www.w3.org/2000/svg" xmlns:xlink="http://www.w3.org/1999/xlink" version="1.1"><g stroke-width="1" stroke-linejoin="bevel"><path d="M509 323L493 361L583 322Z" fill="#1f2e4d" stroke="#1f2e4d"></path><path d="M493 361L604 420L583 322Z" fill="#1f2e4d" stroke="#1f2e4d"></path><path d="M493 361L503 464L604 420Z" fill="#897be0" stroke="#897be0"></path><path d="M509 323L422 386L493 361Z" fill="#1f2e4d" stroke="#1f2e4d"></path><path d="M493 361L422 386L503 464Z" fill="#7570cb" stroke="#7570cb"></path><path d="M677 463L662 434L604 420Z" fill="#283961" stroke="#283961"></path><path d="M604 420L662 434L583 322Z" fill="#515aa0" stroke="#515aa0"></path><path d="M503 464L561 507L604 420Z" fill="#050b15" stroke="#050b15"></path><path d="M727 217L582 200L583 322Z" fill="#897be0" stroke="#897be0"></path><path d="M583 322L582 200L509 323Z" fill="#344476" stroke="#344476"></path><path d="M509 323L368 264L422 386Z" fill="#283961" stroke="#283961"></path><path d="M561 507L677 463L604 420Z" fill="#050b15" stroke="#050b15"></path><path d="M662 434L729 304L583 322Z" fill="#424f8b" stroke="#424f8b"></path><path d="M582 200L508 195L509 323Z" fill="#7570cb" stroke="#7570cb"></path><path d="M422 386L413 489L503 464Z" fill="#1f2e4d" stroke="#1f2e4d"></path><path d="M503 464L477 600L561 507Z" fill="#172339" stroke="#172339"></path><path d="M762 399L729 304L662 434Z" fill="#6265b6" stroke="#6265b6"></path><path d="M396 219L368 264L509 323Z" fill="#515aa0" stroke="#515aa0"></path><path d="M422 386L298 386L413 489Z" fill="#515aa0" stroke="#515aa0"></path><path d="M508 195L396 219L509 323Z" fill="#515aa0" stroke="#515aa0"></path><path d="M677 463L762 399L662 434Z" fill="#424f8b" stroke="#424f8b"></path><path d="M797 270L727 217L729 304Z" fill="#101827" stroke="#101827"></path><path d="M729 304L727 217L583 322Z" fill="#424f8b" stroke="#424f8b"></path><path d="M477 600L600 600L561 507Z" fill="#050b15" stroke="#050b15"></path><path d="M561 507L600 600L677 463Z" fill="#283961" stroke="#283961"></path><path d="M677 463L789 465L762 399Z" fill="#515aa0" stroke="#515aa0"></path><path d="M301 178L302 329L368 264Z" fill="#050b15" stroke="#050b15"></path><path d="M368 264L302 329L422 386Z" fill="#1f2e4d" stroke="#1f2e4d"></path><path d="M392 600L477 600L413 489Z" fill="#101827" stroke="#101827"></path><path d="M413 489L477 600L503 464Z" fill="#344476" stroke="#344476"></path><path d="M302 329L298 386L422 386Z" fill="#283961" stroke="#283961"></path><path d="M736 600L789 465L677 463Z" fill="#101827" stroke="#101827"></path><path d="M762 399L797 270L729 304Z" fill="#172339" stroke="#172339"></path><path d="M900 430L797 270L762 399Z" fill="#6265b6" stroke="#6265b6"></path><path d="M687 87L607 100L582 200Z" fill="#424f8b" stroke="#424f8b"></path><path d="M582 200L607 100L508 195Z" fill="#283961" stroke="#283961"></path><path d="M508 195L478 91L396 219Z" fill="#6265b6" stroke="#6265b6"></path><path d="M687 87L582 200L727 217Z" fill="#1f2e4d" stroke="#1f2e4d"></path><path d="M607 100L478 91L508 195Z" fill="#283961" stroke="#283961"></path><path d="M396 219L301 178L368 264Z" fill="#6265b6" stroke="#6265b6"></path><path d="M336 600L392 600L413 489Z" fill="#050b15" stroke="#050b15"></path><path d="M600 600L736 600L677 463Z" fill="#283961" stroke="#283961"></path><path d="M298 386L295 536L413 489Z" fill="#6265b6" stroke="#6265b6"></path><path d="M387 96L301 178L396 219Z" fill="#172339" stroke="#172339"></path><path d="M302 329L227 314L298 386Z" fill="#1f2e4d" stroke="#1f2e4d"></path><path d="M298 386L239 491L295 536Z" fill="#897be0" stroke="#897be0"></path><path d="M825 176L687 87L727 217Z" fill="#172339" stroke="#172339"></path><path d="M607 100L576 0L478 91Z" fill="#7570cb" stroke="#7570cb"></path><path d="M478 91L387 96L396 219Z" fill="#172339" stroke="#172339"></path><path d="M295 536L336 600L413 489Z" fill="#424f8b" stroke="#424f8b"></path><path d="M301 178L227 314L302 329Z" fill="#1f2e4d" stroke="#1f2e4d"></path><path d="M216 433L239 491L298 386Z" fill="#101827" stroke="#101827"></path><path d="M295 536L166 600L336 600Z" fill="#344476" stroke="#344476"></path><path d="M900 221L825 176L797 270Z" fill="#897be0" stroke="#897be0"></path><path d="M797 270L825 176L727 217Z" fill="#344476" stroke="#344476"></path><path d="M227 314L216 433L298 386Z" fill="#515aa0" stroke="#515aa0"></path><path d="M900 522L900 430L789 465Z" fill="#897be0" stroke="#897be0"></path><path d="M789 465L900 430L762 399Z" fill="#050b15" stroke="#050b15"></path><path d="M730 0L576 0L687 87Z" fill="#1f2e4d" stroke="#1f2e4d"></path><path d="M687 87L576 0L607 100Z" fill="#897be0" stroke="#897be0"></path><path d="M478 91L425 0L387 96Z" fill="#283961" stroke="#283961"></path><path d="M576 0L489 0L478 91Z" fill="#6265b6" stroke="#6265b6"></path><path d="M900 430L900 261L797 270Z" fill="#050b15" stroke="#050b15"></path><path d="M301 178L216 194L227 314Z" fill="#7570cb" stroke="#7570cb"></path><path d="M227 314L99 390L216 433Z" fill="#283961" stroke="#283961"></path><path d="M220 74L216 194L301 178Z" fill="#897be0" stroke="#897be0"></path><path d="M298 61L301 178L387 96Z" fill="#101827" stroke="#101827"></path><path d="M736 600L834 600L789 465Z" fill="#1f2e4d" stroke="#1f2e4d"></path><path d="M900 261L900 221L797 270Z" fill="#424f8b" stroke="#424f8b"></path><path d="M825 176L820 74L687 87Z" fill="#1f2e4d" stroke="#1f2e4d"></path><path d="M489 0L425 0L478 91Z" fill="#050b15" stroke="#050b15"></path><path d="M834 600L900 522L789 465Z" fill="#1f2e4d" stroke="#1f2e4d"></path><path d="M425 0L298 61L387 96Z" fill="#6265b6" stroke="#6265b6"></path><path d="M900 71L820 74L825 176Z" fill="#424f8b" stroke="#424f8b"></path><path d="M763 0L730 0L687 87Z" fill="#050b15" stroke="#050b15"></path><path d="M820 74L763 0L687 87Z" fill="#172339" stroke="#172339"></path><path d="M834 600L900 600L900 522Z" fill="#1f2e4d" stroke="#1f2e4d"></path><path d="M263 0L220 74L298 61Z" fill="#424f8b" stroke="#424f8b"></path><path d="M298 61L220 74L301 178Z" fill="#6265b6" stroke="#6265b6"></path><path d="M79 316L99 390L227 314Z" fill="#050b15" stroke="#050b15"></path><path d="M130 531L166 600L239 491Z" fill="#6265b6" stroke="#6265b6"></path><path d="M239 491L166 600L295 536Z" fill="#172339" stroke="#172339"></path><path d="M108 194L227 314L216 194Z" fill="#050b15" stroke="#050b15"></path><path d="M130 531L239 491L216 433Z" fill="#515aa0" stroke="#515aa0"></path><path d="M99 390L130 531L216 433Z" fill="#515aa0" stroke="#515aa0"></path><path d="M900 221L900 71L825 176Z" fill="#7570cb" stroke="#7570cb"></path><path d="M820 74L900 0L763 0Z" fill="#897be0" stroke="#897be0"></path><path d="M425 0L263 0L298 61Z" fill="#101827" stroke="#101827"></path><path d="M110 118L216 194L220 74Z" fill="#424f8b" stroke="#424f8b"></path><path d="M110 118L108 194L216 194Z" fill="#515aa0" stroke="#515aa0"></path><path d="M108 194L79 316L227 314Z" fill="#515aa0" stroke="#515aa0"></path><path d="M0 530L79 600L130 531Z" fill="#344476" stroke="#344476"></path><path d="M184 0L110 118L220 74Z" fill="#101827" stroke="#101827"></path><path d="M0 220L0 332L79 316Z" fill="#344476" stroke="#344476"></path><path d="M900 71L900 0L820 74Z" fill="#6265b6" stroke="#6265b6"></path><path d="M263 0L184 0L220 74Z" fill="#1f2e4d" stroke="#1f2e4d"></path><path d="M0 422L130 531L99 390Z" fill="#897be0" stroke="#897be0"></path><path d="M130 531L79 600L166 600Z" fill="#424f8b" stroke="#424f8b"></path><path d="M0 220L79 316L108 194Z" fill="#344476" stroke="#344476"></path><path d="M79 316L0 332L99 390Z" fill="#515aa0" stroke="#515aa0"></path><path d="M0 332L0 422L99 390Z" fill="#6265b6" stroke="#6265b6"></path><path d="M0 96L0 220L108 194Z" fill="#172339" stroke="#172339"></path><path d="M0 96L108 194L110 118Z" fill="#515aa0" stroke="#515aa0"></path><path d="M0 422L0 530L130 531Z" fill="#101827" stroke="#101827"></path><path d="M0 530L0 600L79 600Z" fill="#283961" stroke="#283961"></path><path d="M184 0L63 0L110 118Z" fill="#897be0" stroke="#897be0"></path><path d="M63 0L0 96L110 118Z" fill="#515aa0" stroke="#515aa0"></path><path d="M63 0L0 0L0 96Z" fill="#283961" stroke="#283961"></path></g></svg>