<?xml version="1.0" encoding="UTF-8"?>
<svg xmlns="http://www.w3.org/2000/svg" data-name="Capa 2" viewBox="0 0 426.62 426.85"><g fill="#1b115c" data-name="Capa 1"><path d="M213.31 426.85C95.69 426.85 0 331.11 0 213.43S95.69 0 213.31 0c56.98 0 110.55 22.2 150.84 62.51 40.29 40.31 62.48 93.91 62.48 150.91 0 117.68-95.69 213.43-213.31 213.43zm0-409.53c-108.07 0-195.99 87.97-195.99 196.11s87.92 196.11 195.99 196.11S409.3 321.57 409.3 213.43 321.38 17.32 213.31 17.32z" style="fill: #1b115c;"/><path d="M341.31 307.35h-256a8.5 8.5 0 0 1-8.5-8.5V128.18a8.5 8.5 0 0 1 8.5-8.5h256a8.5 8.5 0 0 1 8.5 8.5v170.67a8.5 8.5 0 0 1-8.5 8.5zm-247.5-17.01H332.8V136.68H93.82v153.66z" style="fill: #1b115c;"/><path d="M213.31 222.02c-1.64 0-3.29-.48-4.72-1.43l-128-85.33c-3.91-2.6-4.96-7.89-2.36-11.79a8.504 8.504 0 0 1 11.79-2.36L213.3 203.3l123.28-82.19c3.91-2.6 9.19-1.55 11.79 2.36 2.6 3.91 1.55 9.19-2.36 11.79l-128 85.33a8.515 8.515 0 0 1-4.72 1.43z" style="fill: #1b115c;"/><path d="M85.31 307.35c-2.18 0-4.35-.83-6.01-2.49a8.51 8.51 0 0 1 0-12.03l98.28-98.28c3.32-3.32 8.71-3.32 12.03 0s3.32 8.71 0 12.03l-98.28 98.28a8.481 8.481 0 0 1-6.01 2.49zM341.31 307.35c-2.18 0-4.35-.83-6.01-2.49L233.94 203.5c-3.32-3.32-3.32-8.71 0-12.03s8.71-3.32 12.03 0l101.36 101.36a8.51 8.51 0 0 1 0 12.03 8.481 8.481 0 0 1-6.01 2.49z" style="fill: #1b115c;"/></g></svg>
