<svg xmlns="http://www.w3.org/2000/svg" data-name="Capa 2" viewBox="0 0 426.62 426.85"><g fill="#1b115c" data-name="Capa 1"><path d="M213.31 426.85C95.69 426.85 0 331.11 0 213.43S95.69 0 213.31 0s213.31 95.74 213.31 213.43-95.69 213.43-213.31 213.43zm0-409.53c-108.07 0-195.99 87.97-195.99 196.11s87.92 196.11 195.99 196.11S409.3 321.57 409.3 213.43 321.38 17.32 213.31 17.32z"/><path d="M286.11 349.86H175.43a8.5 8.5 0 1 1 0-17h110.68c4.83 0 8.75-3.92 8.75-8.75V102.75c0-4.82-3.92-8.75-8.75-8.75H175.43a8.5 8.5 0 1 1 0-17h110.68c14.2 0 25.76 11.55 25.76 25.76v221.35c0 14.2-11.55 25.76-25.76 25.76z"/><path d="M247.46 223.58H88.85c-4.62 0-8.36-3.75-8.36-8.36s3.74-8.36 8.36-8.36h158.61c4.62 0 8.36 3.75 8.36 8.36s-3.74 8.36-8.36 8.36z"/><path d="M176.88 300.77c-2.21 0-4.43-.85-6.1-2.56-3.32-3.37-3.28-8.8.09-12.12l64.97-64c1.88-1.85 2.91-4.29 2.91-6.89s-1.03-5.04-2.91-6.89l-64.97-64c-3.37-3.32-3.41-8.75-.09-12.12 3.32-3.37 8.75-3.41 12.12-.09l64.97 64c5.17 5.09 8.02 11.88 8.02 19.1s-2.85 14.01-8.02 19.1l-64.97 64a8.552 8.552 0 0 1-6.01 2.46z"/></g></svg>