<svg xmlns="http://www.w3.org/2000/svg" data-name="Capa 2" viewBox="0 0 425.93 425.93"><g fill="#1b115c" data-name="Capa 1"><path d="M212.96 425.93C95.53 425.93 0 330.4 0 212.97 0 156.08 22.15 102.6 62.37 62.38 102.6 22.15 156.08 0 212.96 0c117.43 0 212.97 95.54 212.97 212.97s-95.54 212.96-212.97 212.96zm0-408.93C104.91 17 17 104.91 17 212.97s87.91 195.96 195.96 195.96 195.97-87.91 195.97-195.96S321.02 17 212.96 17z"/><path d="M298.25 342.07H127.68c-4.69 0-8.5-3.81-8.5-8.5V178.03c0-32.6 26.53-59.13 59.13-59.13h56.21c4.39 0 8.05 3.34 8.46 7.71 1.62 17.29 14.11 31.48 31.07 35.3 6.8 1.55 14.14 1.27 20.9-.83a8.493 8.493 0 0 1 10.9 6.62c.6 3.36.9 6.84.9 10.33v155.54c0 4.69-3.81 8.5-8.5 8.5zm-162.07-17h153.57V179.5c-6.49.78-13.17.43-19.46-1.01a56.896 56.896 0 0 1-42.98-42.59h-49c-23.23 0-42.13 18.9-42.13 42.13v147.04z"/><path d="M170.32 131.25c-4.69 0-8.5-3.81-8.5-8.5V85.03c0-4.69 3.81-8.5 8.5-8.5s8.5 3.81 8.5 8.5v37.72c0 4.69-3.81 8.5-8.5 8.5zM149 363.45c-4.69 0-8.5-3.81-8.5-8.5v-18.91c0-4.69 3.81-8.5 8.5-8.5s8.5 3.81 8.5 8.5v18.91c0 4.69-3.81 8.5-8.5 8.5zM276.93 363.45c-4.69 0-8.5-3.81-8.5-8.5v-18.91c0-4.69 3.81-8.5 8.5-8.5s8.5 3.81 8.5 8.5v18.91c0 4.69-3.81 8.5-8.5 8.5z"/><path d="M253.93 92.21H149.39c-4.69 0-8.5-3.81-8.5-8.5s3.81-8.5 8.5-8.5h104.54c4.69 0 8.5 3.81 8.5 8.5s-3.81 8.5-8.5 8.5z"/><path d="M282.94 179.9c-4.29 0-8.54-.48-12.65-1.41-24.13-5.44-41.92-25.65-44.23-50.29a51.1 51.1 0 0 1-.24-4.17c-.02-.42-.02-.85-.02-1.27 0-17.98 8.62-35.13 23.07-45.86 9.91-7.38 21.69-11.28 34.08-11.28 31.51 0 57.15 25.63 57.15 57.14 0 16.94-7.45 32.91-20.45 43.8a56.797 56.797 0 0 1-19.62 10.75 57.201 57.201 0 0 1-17.08 2.6zm0-97.29c-8.7 0-16.98 2.74-23.93 7.92-10.31 7.66-16.22 19.4-16.22 32.22v.45c0 .13.01.26.02.39.02 1.01.07 2.01.17 2.98 1.63 17.34 14.11 31.52 31.07 35.35 6.8 1.55 14.14 1.27 20.9-.83 5.05-1.58 9.69-4.12 13.76-7.55a40.064 40.064 0 0 0 14.37-30.78c0-22.13-18.01-40.14-40.15-40.14zM170.32 306.75c-4.69 0-8.5-3.81-8.5-8.5V170.32c0-4.69 3.81-8.5 8.5-8.5s8.5 3.81 8.5 8.5v127.93c0 4.69-3.81 8.5-8.5 8.5zM212.97 306.75c-4.69 0-8.5-3.81-8.5-8.5V170.32c0-4.69 3.81-8.5 8.5-8.5s8.5 3.81 8.5 8.5v127.93c0 4.69-3.81 8.5-8.5 8.5z"/><path d="M255.61 306.75c-4.69 0-8.5-3.81-8.5-8.5V170.32c0-4.69 3.81-8.5 8.5-8.5s8.5 3.81 8.5 8.5v127.93c0 4.69-3.81 8.5-8.5 8.5zM282.94 151.96c-4.69 0-8.5-3.81-8.5-8.5v-41.42c0-4.69 3.81-8.5 8.5-8.5s8.5 3.81 8.5 8.5v41.42c0 4.69-3.81 8.5-8.5 8.5z"/><path d="M306 131.25h-46.13c-4.69 0-8.5-3.81-8.5-8.5s3.81-8.5 8.5-8.5H306c4.69 0 8.5 3.81 8.5 8.5s-3.81 8.5-8.5 8.5z"/></g></svg>