<svg xmlns="http://www.w3.org/2000/svg" data-name="Capa 2" viewBox="0 0 425.93 425.93"><g data-name="Capa 1"><path fill="none" stroke="#1b115c" stroke-linecap="round" stroke-linejoin="round" stroke-width="17" d="M212.96 8.5C100.04 8.5 8.5 100.04 8.5 212.97s91.54 204.46 204.46 204.46 204.47-91.54 204.47-204.46S325.88 8.5 212.96 8.5zm116.53 162.47a48.423 48.423 0 0 1-31.24 11.36c-3.7 0-7.3-.41-10.76-1.2-21.39-4.82-37.44-23.74-37.87-46.48-.02-.32-.02-.65-.02-.97 0-26.86 21.78-48.64 48.65-48.64s48.65 21.78 48.65 48.64c0 14.98-6.77 28.37-17.41 37.29z"/><path fill="#1b115c" d="M329.49 309.72H85.03c-4.69 0-8.5-3.81-8.5-8.5V134.65c0-4.69 3.81-8.5 8.5-8.5h164.59c4.63 0 8.41 3.71 8.5 8.34a39.996 39.996 0 0 0 31.24 38.35c2.89.66 5.87.99 8.89.99 9.42 0 18.57-3.33 25.78-9.37a8.503 8.503 0 0 1 9.06-1.19c2.99 1.4 4.91 4.4 4.91 7.7v130.25c0 4.69-3.81 8.5-8.5 8.5zm-235.96-17h227.46V186.11a57.207 57.207 0 0 1-22.74 4.72c-4.29 0-8.55-.48-12.65-1.41a56.914 56.914 0 0 1-43.71-46.27H93.53v149.57z"/><path fill="#1b115c" d="M240.66 132.78c-4.69 0-8.5-3.81-8.5-8.5 0-13.73-11.17-24.9-24.9-24.9s-24.9 11.17-24.9 24.9c0 4.69-3.81 8.5-8.5 8.5s-8.5-3.81-8.5-8.5c0-23.1 18.8-41.9 41.9-41.9s41.9 18.8 41.9 41.9c0 4.69-3.81 8.5-8.5 8.5zM121.27 330.55c-4.69 0-8.5-3.81-8.5-8.5v-21.02l-.65-165.86c-.02-4.69 3.77-8.51 8.47-8.53 4.69.01 8.51 3.77 8.53 8.47l.65 165.9v21.06c0 4.69-3.81 8.5-8.5 8.5zM287.84 330.55c-4.69 0-8.5-3.81-8.5-8.5v-14.88c0-.56-.01-2.62-.03-5.9l-.32-120.12c-.01-4.69 3.78-8.51 8.48-8.52h.02c4.68 0 8.49 3.79 8.5 8.48l.32 120.09c.02 3.31.03 5.41.03 5.97v14.88c0 4.69-3.81 8.5-8.5 8.5z"/><path fill="#1b115c" d="M298.25 190.83c-4.29 0-8.55-.48-12.65-1.41-25.63-5.78-43.91-28.16-44.47-54.45-.02-.43-.02-.86-.02-1.28 0-31.51 25.64-57.14 57.15-57.14s57.15 25.63 57.15 57.14c0 16.94-7.45 32.91-20.45 43.8a57.169 57.169 0 0 1-36.7 13.35zm0-97.29c-22.14 0-40.15 18.01-40.15 40.14v.45c0 .12.01.24.01.36a39.996 39.996 0 0 0 31.24 38.35c2.89.66 5.87.99 8.89.99 9.42 0 18.57-3.33 25.78-9.37a40.064 40.064 0 0 0 14.37-30.78c0-22.13-18.01-40.14-40.15-40.14z"/><path fill="#1b115c" d="M298.25 162.9c-4.69 0-8.5-3.81-8.5-8.5v-41.42c0-4.69 3.81-8.5 8.5-8.5s8.5 3.81 8.5 8.5v41.42c0 4.69-3.81 8.5-8.5 8.5z"/><path fill="#1b115c" d="M321.31 142.18h-46.13c-4.69 0-8.5-3.81-8.5-8.5s3.81-8.5 8.5-8.5h46.13c4.69 0 8.5 3.81 8.5 8.5s-3.81 8.5-8.5 8.5z"/></g></svg>