<svg xmlns="http://www.w3.org/2000/svg" data-name="Capa 2" viewBox="0 0 426.61 426.61"><g fill="#1b115c" data-name="Capa 1"><path d="M336.2 226.94c-21.22 0-38.49-17.27-38.49-38.49s17.26-38.49 38.49-38.49 38.49 17.27 38.49 38.49-17.26 38.49-38.49 38.49zm0-59.98c-11.85 0-21.49 9.64-21.49 21.49s9.64 21.49 21.49 21.49 21.49-9.64 21.49-21.49-9.64-21.49-21.49-21.49zM335.87 294.05c-22.49 0-43.62-11.79-55.14-30.77a8.496 8.496 0 0 1 2.05-11.12c15.25-11.87 34.6-18.67 53.1-18.67 11.69 0 23 2.31 33.63 6.88 7.58 3.26 16.02 9.44 19.3 11.95a8.503 8.503 0 0 1 2.08 11.19c-11.55 18.84-32.62 30.54-55 30.54zm-35.88-33.15c8.88 10.11 22.02 16.15 35.88 16.15s26.92-6.01 35.8-16.06c-3.35-2.2-6.45-3.95-8.89-5-8.49-3.65-17.55-5.5-26.92-5.5-12.19 0-24.89 3.73-35.88 10.42z"/><path d="M336.2 226.94c-21.22 0-38.49-17.27-38.49-38.49s17.26-38.49 38.49-38.49 38.49 17.27 38.49 38.49-17.26 38.49-38.49 38.49zm0-59.98c-11.85 0-21.49 9.64-21.49 21.49s9.64 21.49 21.49 21.49 21.49-9.64 21.49-21.49-9.64-21.49-21.49-21.49zM383.62 267.57c-1.8 0-3.62-.57-5.16-1.75-5.77-4.42-11.63-8.1-15.67-9.83-8.49-3.65-17.55-5.5-26.92-5.5-14.79 0-30.33 5.5-42.66 15.09-3.71 2.88-9.05 2.22-11.93-1.49-2.88-3.71-2.22-9.05 1.49-11.93 15.25-11.87 34.6-18.67 53.1-18.67 11.69 0 23 2.31 33.63 6.88 7.58 3.26 16.02 9.44 19.3 11.95 3.73 2.85 4.44 8.19 1.58 11.92a8.463 8.463 0 0 1-6.75 3.33zM271.89 128.87c-21.22 0-38.49-17.26-38.49-38.49s17.26-38.49 38.49-38.49 38.49 17.27 38.49 38.49-17.26 38.49-38.49 38.49zm0-59.98c-11.85 0-21.49 9.64-21.49 21.49s9.64 21.49 21.49 21.49 21.49-9.64 21.49-21.49-9.64-21.49-21.49-21.49z"/><path d="M213.31 426.61C95.69 426.61 0 330.92 0 213.31S95.69 0 213.31 0s213.31 95.69 213.31 213.31-95.69 213.31-213.31 213.31zm0-409.61C105.06 17 17 105.06 17 213.31s88.06 196.31 196.31 196.31 196.31-88.06 196.31-196.31S321.55 17 213.31 17z"/><path d="M183.46 243.95c-33.03 0-59.91-26.87-59.91-59.91s26.87-59.92 59.91-59.92c20.4 0 39.22 10.24 50.32 27.38a8.46 8.46 0 0 1 1.09 6.76c2.12.87 3.89 2.59 4.75 4.91 2.48 6.67 3.74 13.7 3.74 20.87 0 33.03-26.87 59.91-59.91 59.91zm0-102.82c-23.66 0-42.91 19.25-42.91 42.92s19.25 42.91 42.91 42.91 42.91-19.25 42.91-42.91c0-5.14-.9-10.17-2.67-14.94-.63-1.7-.69-3.47-.26-5.1a8.433 8.433 0 0 1-3.92-3.25c-7.96-12.29-21.44-19.62-36.05-19.62zM183.47 371.66c-24.2 0-47.99-6.4-68.8-18.5-20.18-11.74-37.15-28.56-49.08-48.63a8.491 8.491 0 0 1 2.02-10.99c33.32-26.5 75.55-41.69 115.87-41.69 25.5 0 50.17 5.16 73.33 15.32 16.37 7.18 34.97 21.14 42.2 26.8a8.497 8.497 0 0 1 2.05 11.07c-11.96 19.94-28.91 36.64-49.03 48.28-20.74 12.01-44.45 18.35-68.55 18.35zm-99.2-69.44c10.1 14.79 23.44 27.23 38.95 36.25 18.22 10.6 39.05 16.2 60.25 16.2s41.87-5.56 60.03-16.07c15.44-8.94 28.75-21.27 38.86-35.93-11.98-8.87-23.76-16.14-32.4-19.93-20.99-9.22-43.36-13.89-66.49-13.89-34.14 0-69.89 12.09-99.2 33.38z"/><path d="M183.46 243.95c-33.03 0-59.91-26.87-59.91-59.91s26.87-59.92 59.91-59.92c20.4 0 39.22 10.24 50.32 27.38a8.46 8.46 0 0 1 1.09 6.76c2.12.87 3.89 2.59 4.75 4.91 2.48 6.67 3.74 13.7 3.74 20.87 0 33.03-26.87 59.91-59.91 59.91zm0-102.82c-23.66 0-42.91 19.25-42.91 42.92s19.25 42.91 42.91 42.91 42.91-19.25 42.91-42.91c0-5.14-.9-10.17-2.67-14.94-.63-1.7-.69-3.47-.26-5.1a8.433 8.433 0 0 1-3.92-3.25c-7.96-12.29-21.44-19.62-36.05-19.62zM293.75 309.15c-1.83 0-3.68-.59-5.23-1.81-14.02-10.97-28.43-20.18-38.56-24.62-20.99-9.22-43.36-13.89-66.49-13.89-36.54 0-74.92 13.85-105.28 38-3.67 2.92-9.02 2.31-11.94-1.36s-2.31-9.02 1.36-11.94c33.32-26.5 75.55-41.69 115.87-41.69 25.5 0 50.17 5.16 73.33 15.32 16.36 7.18 34.97 21.13 42.2 26.8 3.7 2.89 4.35 8.24 1.45 11.93a8.502 8.502 0 0 1-6.7 3.26z"/><path d="M103.39 287.65c-4.69 0-8.5-3.81-8.5-8.5V246.6l-55.98-18.46a8.489 8.489 0 0 1-5.82-7.51 8.505 8.505 0 0 1 4.77-8.21l61.82-30.01a8.502 8.502 0 0 1 8.22.44 8.503 8.503 0 0 1 3.99 7.2v89.09c0 4.69-3.81 8.5-8.5 8.5zm-39.25-69.09l30.75 10.14v-25.07l-30.75 14.93zM272.91 192.55c-18.06 0-35.37-7.52-47.49-20.64a8.557 8.557 0 0 1-1.73-2.82c-1.07-2.9-2.48-5.71-4.18-8.34-2.44-3.77-1.52-8.79 2.1-11.46 15.15-11.16 33.37-17.31 51.3-17.31 11.68 0 23 2.31 33.62 6.87 7.6 3.27 16.03 9.46 19.3 11.96a8.503 8.503 0 0 1 2.08 11.19c-11.55 18.84-32.63 30.54-55 30.54zm-33.93-31.05c8.85 8.95 21.13 14.05 33.93 14.05 13.8 0 26.92-6.01 35.8-16.06-3.34-2.2-6.45-3.95-8.89-5.01-8.49-3.64-17.55-5.49-26.91-5.49-11.8 0-24.24 3.56-35.05 9.93.39.85.77 1.71 1.12 2.58z"/><path d="M320.66 166.07c-1.8 0-3.62-.57-5.16-1.75-5.76-4.42-11.62-8.09-15.67-9.84-8.49-3.64-17.55-5.49-26.91-5.49-14.12 0-29.15 5.1-41.22 13.99a8.51 8.51 0 0 1-11.89-1.8c-2.78-3.78-1.98-9.1 1.8-11.88 15.15-11.16 33.37-17.31 51.3-17.31 11.68 0 23 2.31 33.62 6.87 7.6 3.27 16.03 9.45 19.3 11.96 3.73 2.85 4.43 8.19 1.58 11.92a8.492 8.492 0 0 1-6.75 3.33z"/></g></svg>