<svg xmlns="http://www.w3.org/2000/svg" data-name="Capa 2" viewBox="0 0 425.85 425.85"><g fill="none" stroke="#1b115c" stroke-linecap="round" stroke-linejoin="round" stroke-width="17" data-name="Capa 1"><circle cx="212.93" cy="212.93" r="204.43"/><path d="M163.09 211.6h97.85M66.55 184.5c0-16.69 13.53-30.23 30.22-30.23s30.22 13.53 30.22 30.23-13.53 30.22-30.22 30.22-30.22-13.53-30.22-30.22zM144.97 250.44c-9.8 15.99-27.69 26.69-48.13 26.69s-38.48-10.79-48.26-26.89c13.02-10.13 30.4-17.01 48.26-17.01 10.85 0 21.17 2.23 30.51 6.24 5.56 2.39 12.41 6.98 17.62 10.98z"/><path d="M126.99 184.5c0 16.69-13.53 30.22-30.22 30.22s-30.22-13.53-30.22-30.22 13.53-30.23 30.22-30.23 30.22 13.53 30.22 30.23zM291.62 184.5c0-16.69 13.53-30.23 30.22-30.23s30.22 13.53 30.22 30.23-13.53 30.22-30.22 30.22-30.22-13.53-30.22-30.22zM370.03 250.44c-9.8 15.99-27.69 26.69-48.13 26.69s-38.48-10.79-48.26-26.89c13.02-10.13 30.4-17.01 48.26-17.01 10.85 0 21.17 2.23 30.51 6.24 5.56 2.39 12.41 6.98 17.62 10.98z"/><path d="M352.06 184.5c0 16.69-13.53 30.22-30.22 30.22s-30.22-13.53-30.22-30.22 13.53-30.23 30.22-30.23 30.22 13.53 30.22 30.23zM184.75 243.64l-28.16-25.55c-2.86-2.86-2.67-7.71.44-10.82l27.72-27.72M237.83 243.64l28.16-25.55c2.86-2.86 2.67-7.71-.44-10.82l-27.72-27.72"/></g></svg>