<svg xmlns="http://www.w3.org/2000/svg" data-name="Capa 2" viewBox="0 0 427.02 427.02"><g fill="#1b115c" data-name="Capa 1"><path d="M213.51 427.02C95.78 427.02 0 331.24 0 213.51S95.78 0 213.51 0s213.51 95.78 213.51 213.51-95.78 213.51-213.51 213.51zm0-410.01c-108.35 0-196.5 88.15-196.5 196.5s88.15 196.5 196.5 196.5 196.5-88.15 196.5-196.5-88.15-196.5-196.5-196.5z"/><path d="M213.51 365.14c-83.61 0-151.63-68.02-151.63-151.63S129.9 61.88 213.51 61.88s151.63 68.02 151.63 151.63-68.02 151.63-151.63 151.63zm0-286.25c-74.23 0-134.62 60.39-134.62 134.62s60.39 134.62 134.62 134.62 134.62-60.39 134.62-134.62S287.74 78.89 213.51 78.89z"/><path d="M233.99 304.15H197a8.5 8.5 0 0 1-8.5-8.5v-54.92h-54.92a8.5 8.5 0 0 1-8.5-8.5v-36.98a8.5 8.5 0 0 1 8.5-8.5h54.92v-54.93a8.5 8.5 0 0 1 8.5-8.5h36.99a8.5 8.5 0 0 1 8.5 8.5v54.93h54.92a8.5 8.5 0 0 1 8.5 8.5v36.98a8.5 8.5 0 0 1-8.5 8.5h-54.92v54.92a8.5 8.5 0 0 1-8.5 8.5zm-28.48-17.01h19.98v-54.92a8.5 8.5 0 0 1 8.5-8.5h54.92v-19.97h-54.92a8.5 8.5 0 0 1-8.5-8.5v-54.93h-19.98v54.93a8.5 8.5 0 0 1-8.5 8.5h-54.92v19.97h54.92a8.5 8.5 0 0 1 8.5 8.5v54.92z"/></g></svg>