<svg xmlns="http://www.w3.org/2000/svg" viewBox="0 0 443.67 443.67"><g fill="#1b115c" data-name="Layer 2"><path d="M378.7 65A221.84 221.84 0 0 0 65 378.7 221.84 221.84 0 0 0 378.7 65zM221.84 426.67C108.89 426.67 17 334.78 17 221.84S108.89 17 221.84 17s204.83 91.88 204.83 204.83-91.89 204.84-204.83 204.84z"/><path d="M346 221.84l31.32-31.32a8.5 8.5 0 0 0-12-12l-34.85 34.84h-88.22l48.56-48.56a27.9 27.9 0 0 0 32.66-5 8.5 8.5 0 1 0-12-12 10.88 10.88 0 1 1-15.39-15.38 8.51 8.51 0 0 0-12-12 27.93 27.93 0 0 0-5.16 32.32l-48.41 48.41v-87.79l34.79-34.84a8.5 8.5 0 1 0-12-12L222 97.81l-31.36-31.32a8.51 8.51 0 0 0-12 12l34.84 34.84v87.93l-48.61-48.56a27.9 27.9 0 0 0-5.08-32.49 8.51 8.51 0 1 0-12 12 10.86 10.86 0 0 1 0 15.38 10.88 10.88 0 0 1-15.39 0 8.5 8.5 0 1 0-12 12 27.9 27.9 0 0 0 32.49 5.08l48.6 48.6h-88l-34.85-34.78a8.51 8.51 0 1 0-12 12l31.32 31.32-31.35 31.35a8.5 8.5 0 0 0 12 12l34.84-34.84h87.71l-48.46 48.5a27.93 27.93 0 0 0-32.48 5.08 8.5 8.5 0 0 0 12 12 10.89 10.89 0 0 1 15.38 0 10.88 10.88 0 0 1 0 15.38 8.51 8.51 0 0 0 12 12 27.92 27.92 0 0 0 5.08-32.5l48.71-48.71v88.18l-34.84 34.85a8.5 8.5 0 0 0 12 12L222 345.86l31.32 31.32a8.5 8.5 0 1 0 12-12l-34.84-34.85v-88l48.45 48.45a27.93 27.93 0 0 0 5 32.66 8.5 8.5 0 0 0 12-12 10.88 10.88 0 1 1 15.39-15.39 8.5 8.5 0 0 0 12-12 27.93 27.93 0 0 0-32.32-5.19l-48.5-48.52h87.93l34.85 34.84a8.5 8.5 0 0 0 12-12z"/></g></svg>