<svg xmlns="http://www.w3.org/2000/svg" data-name="Capa 2" viewBox="0 0 426.4 426.4"><g fill="#1b115c" data-name="Capa 1"><path d="M213.2 426.4C95.64 426.4 0 330.76 0 213.2S95.64 0 213.2 0s213.2 95.64 213.2 213.2-95.64 213.2-213.2 213.2zm0-409.4C105.02 17 17 105.02 17 213.2s88.02 196.2 196.2 196.2 196.2-88.02 196.2-196.2S321.39 17 213.2 17z"/><path d="M213.2 345.83c-4.69 0-8.5-3.81-8.5-8.5V93.64c0-4.69 3.81-8.5 8.5-8.5s8.5 3.81 8.5 8.5v243.69c0 4.69-3.81 8.5-8.5 8.5z"/><path d="M90.38 211.49c-2.18 0-4.35-.83-6.01-2.49a8.498 8.498 0 0 1 0-12.02L186.46 94.89c14.74-14.74 38.73-14.74 53.48 0l102.09 102.09a8.498 8.498 0 0 1 0 12.02 8.498 8.498 0 0 1-12.02 0L227.92 106.91c-8.12-8.12-21.32-8.11-29.44 0L96.39 209a8.464 8.464 0 0 1-6.01 2.49z"/></g></svg>