<svg xmlns="http://www.w3.org/2000/svg" data-name="Capa 2" viewBox="0 0 426.62 426.62"><g fill="#1b115c" data-name="Capa 1"><circle cx="168.82" cy="207.94" r="14.04"/><circle cx="216.25" cy="207.94" r="14.04"/><circle cx="263.67" cy="207.94" r="14.04"/><path d="M213.31 426.62C95.69 426.62 0 330.93 0 213.31S95.69 0 213.31 0s213.31 95.69 213.31 213.31-95.69 213.31-213.31 213.31zm0-410.25c-108.59 0-196.94 88.35-196.94 196.94s88.35 196.94 196.94 196.94 196.94-88.35 196.94-196.94S321.9 16.37 213.31 16.37z"/><path d="M121.45 358.79c-1.44 0-2.88-.38-4.17-1.14a8.187 8.187 0 0 1-3.98-7.76l5.76-65.69c-19.04-22.48-29.48-50.91-29.48-80.47 0-68.71 55.9-124.61 124.61-124.61s124.61 55.9 124.61 124.61-55.9 124.61-124.61 124.61c-12.43 0-24.67-1.82-36.45-5.42l-51.75 34.51a8.23 8.23 0 0 1-4.54 1.38zm92.75-263.3c-59.68 0-108.24 48.56-108.24 108.24 0 26.72 9.82 52.38 27.66 72.25a8.186 8.186 0 0 1 2.06 6.18l-4.58 52.18 40.86-27.25a8.18 8.18 0 0 1 7.19-.93c11.26 3.85 23.05 5.8 35.05 5.8 59.68 0 108.24-48.56 108.24-108.24S273.88 95.48 214.2 95.48z"/></g></svg>