<svg xmlns="http://www.w3.org/2000/svg" data-name="Capa 2" viewBox="0 0 426.52 426.52"><g fill="#1b115c" data-name="Capa 1"><path d="M213.26 426.52C95.67 426.52 0 330.86 0 213.26S95.67 0 213.26 0s213.26 95.67 213.26 213.26-95.67 213.26-213.26 213.26zm0-409.52c-108.21.01-196.25 88.05-196.25 196.26s88.04 196.25 196.25 196.25 196.25-88.04 196.25-196.25S321.48 17.01 213.26 17.01z"/><path d="M213.97 344.21a8.5 8.5 0 0 1-8.5-8.5V171.79a8.5 8.5 0 1 1 17 0v163.92a8.5 8.5 0 0 1-8.5 8.5z"/><path d="M290.95 249.4c-2.18 0-4.35-.83-6.01-2.49l-63.99-63.99c-3.85-3.85-10.11-3.85-13.96 0L143 246.91c-3.32 3.32-8.71 3.32-12.03 0s-3.32-8.71 0-12.03l63.99-63.99c10.48-10.48 27.53-10.48 38.01 0l63.99 63.99a8.51 8.51 0 0 1 0 12.03 8.481 8.481 0 0 1-6.01 2.49z"/><path d="M295.2 219.06a8.5 8.5 0 0 1-8.1-5.93c-1.42-4.48 1.05-9.26 5.53-10.68 15.23-4.84 25.46-18.84 25.46-34.83 0-20.15-16.39-36.54-36.54-36.54-.94 0-1.95.05-3.09.14-3.87.32-7.45-2-8.73-5.66-8.29-23.64-30.69-39.53-55.74-39.53s-47.46 15.88-55.74 39.53a8.505 8.505 0 0 1-8.73 5.66c-1.14-.1-2.15-.14-3.09-.14-20.15 0-36.54 16.39-36.54 36.54 0 15.99 10.23 29.99 25.46 34.83 4.48 1.42 6.95 6.2 5.53 10.68-1.42 4.48-6.21 6.95-10.68 5.53-22.32-7.1-37.31-27.61-37.31-51.04 0-28.89 23-52.51 51.64-53.52 12.14-27.2 39.31-45.08 69.48-45.08s57.34 17.88 69.48 45.08c28.65 1.01 51.64 24.63 51.64 53.52 0 23.44-14.99 43.95-37.31 51.04-.86.27-1.73.4-2.58.4z"/></g></svg>